<svg xmlns="http://www.w3.org/2000/svg" width="68" height="67" viewBox="0 0 68 67"><g><g><path fill="#fff" d="M37.294 33.712c0 4.547-.004 8.945.034 13.355 0 1.892-.038 3.781 0 5.674.015.769-.286 1.031-1.06 1.031a169.463 169.463 0 0 0-6.574 0c-.894.018-1.127-.318-1.127-1.146.034-5.97 0-11.935.034-17.9 0-.858-.233-1.165-1.127-1.05-.75.05-1.503.057-2.254.022-.541.007-.808-.185-.808-.78.027-1.86.027-3.721 0-5.582-.008-.584.214-.783.785-.783.842.022 1.687-.037 2.52.022.68.048.888-.166.888-.835 0-1.797-.03-3.604.139-5.393.368-3.944 3.328-6.617 7.352-6.764 2.16-.07 4.32-.085 6.477-.156.781-.025 1.063.263 1.04 1.035-.049 1.653-.067 3.308 0 4.96.038.903-.338 1.11-1.157 1.062-.894-.06-1.8-.026-2.697 0-1.744.059-2.367.632-2.495 2.336-.068.968-.034 1.944-.068 2.916-.022.61.275.74.83.74 1.534 0 3.063.021 4.595 0 .665-.008.898.22.82.897a146.208 146.208 0 0 0-.542 5.545c-.048.624-.334.794-.916.794h-4.689zM35.001.014C16.217-.516.553 14.045.014 32.54c-.539 18.494 14.25 33.917 33.034 34.448 19.492.5 35.06-15.014 34.95-33.452C68.09 15.265 53.198.502 35.002.014z"/></g></g></svg>