<svg xmlns="http://www.w3.org/2000/svg" width="73" height="74" viewBox="0 0 73 74"><g><g><g><path fill="#fff" d="M42.617 24.948a2.686 2.686 0 0 1 .59-2.92 2.667 2.667 0 0 1 2.917-.569 2.68 2.68 0 0 1 1.638 2.487 2.706 2.706 0 0 1-2.68 2.665 2.673 2.673 0 0 1-2.465-1.663zM24.128 39.07a10.675 10.675 0 0 1 2.318-11.623 10.636 10.636 0 0 1 11.611-2.297 10.663 10.663 0 0 1 6.558 9.867c-.03 5.873-4.784 10.623-10.648 10.641-4.308 0-8.192-2.6-9.839-6.588zm26.425-15.786c-1.102-3.31-3.974-5.28-7.541-5.284H24.987a8.848 8.848 0 0 0-2.688.412c-3.288 1.103-5.279 3.956-5.286 7.5-.017 6.058-.017 12.113 0 18.165a7.65 7.65 0 0 0 3.258 6.471 7.767 7.767 0 0 0 4.735 1.45h17.951a8.165 8.165 0 0 0 2.773-.416c3.27-1.166 5.257-3.983 5.26-7.534 0-6.042.022-12.083 0-18.124a8.634 8.634 0 0 0-.437-2.64z"/></g><g><path fill="#fff" d="M55.292 45.274c-.026.147-.041.297-.078.443-.281 1.096-.414 2.251-.876 3.28-2.07 4.546-5.628 6.981-10.575 7.049-6.168.09-12.339.026-18.51.019A10.948 10.948 0 0 1 18.697 54c-3.305-2.393-4.962-5.684-4.973-9.8-.017-6.153-.017-12.304 0-18.455-.008-.795.067-1.588.222-2.367 1.032-4.78 3.897-7.83 8.541-9.143.607-.173 1.246-.233 1.849-.35h20.3c.425.072.857.117 1.275.21 4.71 1.078 7.732 3.97 9.022 8.694.17.615.23 1.26.34 1.876zM34.504 1C20.954.998 8.738 9.281 3.552 21.986c-5.186 12.704-2.321 27.329 7.26 37.053 9.58 9.725 23.989 12.635 36.507 7.372C59.838 61.15 68 48.751 68 35 68 16.224 53.004 1.002 34.504 1z"/></g><g><path fill="#fff" d="M34 28a7 7 0 1 0 0 14 7 7 0 0 0 0-14z"/></g></g></g></svg>